<svg xmlns="http://www.w3.org/2000/svg" fill="none" viewBox="0 0 40 40" height="40" width="40">
<g clip-path="url(#clip0_1218_5026)" id="Logo 1">
<g id="Clip path group">
<mask height="40" width="40" y="0" x="0" maskUnits="userSpaceOnUse" style="mask-type:luminance" id="mask0_1218_5026">
<g id="clip0_1508_1758">
<path fill="white" d="M40 0H0V40H40V0Z" id="Vector"></path>
</g>
</mask>
<g mask="url(#mask0_1218_5026)">
<g id="Group">
<path fill="white" d="M33.643 12.1324C33.6018 11.3982 33.1911 10.8895 33.0195 10.7629C32.6033 10.5104 32.397 10.7189 32.4116 11.1624C32.5166 12.8417 32.3064 15.0982 30.9366 16.1311C30.3981 16.54 29.649 16.218 29.0522 15.4257C28.8077 15.1032 28.5733 14.6779 28.4126 14.2354C29.0282 14.1925 29.5561 13.9931 29.9954 13.6703C31.5833 12.4727 31.3679 9.65685 30.5555 8.56981C30.3744 8.33303 30.1032 8.11274 29.8734 8.03731C29.3482 7.86719 28.768 7.84482 28.0446 7.93682C27.7814 7.96662 27.5551 8.07781 27.3027 8.27455C26.2533 9.06336 25.5153 11.1264 26.0126 13.7565C26.1747 14.7386 26.5083 15.5607 26.974 16.2081C27.1087 17.5055 26.9897 18.943 26.4787 19.3229C25.9403 19.7317 24.7551 19.06 23.6646 17.7557C24.4614 16.5908 24.8165 15.5288 24.9735 14.5324C25.0998 13.7547 24.9406 13.1724 24.6104 12.7333C24.3819 12.4281 24.0879 12.1937 23.7419 12.0238C22.7179 11.4914 22.0116 11.5674 21.4197 12.4671C21.1923 12.808 20.9808 13.1662 20.8317 13.6434C20.4329 10.8538 20.2123 8.86708 19.6856 8.15738C19.4953 7.90028 19.2425 7.72067 18.9782 7.58726C18.4915 7.35869 18.2054 7.5708 18.1854 8.15285C18.2332 11.2086 19.2408 17.2488 20.1197 20.5564C20.4057 22.186 20.4266 24.0918 19.7791 24.583C19.5983 24.7226 19.3998 24.6083 19.2033 24.3377C18.2923 23.1236 18.3296 20.0045 18.0506 18.6583C17.8097 17.3601 17.056 16.6883 16.4731 16.5526C16.0647 16.4602 15.7707 16.7087 15.8255 17.2404L15.9068 18.0628C15.3909 17.7165 14.7513 17.6885 14.1006 18.173C13.1774 18.8634 12.3397 20.8326 12.4566 24.0043C12.4607 24.1743 12.523 24.7762 12.5393 24.8834C13.0602 27.8875 12.4952 30.1337 11.4286 30.9385C10.7302 31.4611 9.4352 31.2812 8.17498 29.6041C7.29909 28.4314 6.47052 26.5577 6.28787 24.5291C5.93792 20.7024 7.42833 16.9299 8.27272 17.0857C8.69828 17.162 8.73155 17.4497 8.97017 18.3315C9.06999 18.7117 9.0621 18.748 9.20295 19.0931C9.31176 19.4037 9.44872 19.6688 9.6267 19.8988C10.0486 20.4679 10.6452 20.6874 11.2209 20.6463C11.7873 20.5848 11.9072 20.1865 11.7582 19.7878C11.5739 19.2578 11.4579 18.7704 11.2867 17.858C11.189 17.3213 11.1732 17.394 10.9132 17.0376C10.3386 16.2761 9.26953 15.8952 8.17059 15.8062C7.63711 15.779 7.08582 15.9809 6.60185 16.3485C6.11789 16.7162 5.67428 17.2619 5.31608 17.8343C3.86755 20.4827 3.0327 26.625 6.06638 30.4986C7.30051 32.0648 9.02146 32.6973 10.2964 32.4934C10.9867 32.4001 11.6709 32.0968 12.3148 31.6154C13.1529 30.9883 13.8473 30.0992 14.2193 28.9312C14.2795 28.7238 14.3311 28.4793 14.3832 28.2182C15.0477 28.5869 15.8118 28.5664 16.5274 28.0278C17.2497 27.4862 17.6419 26.309 17.7857 25.4087C18.4335 25.9732 19.3139 26.0471 20.2169 25.3659C20.8405 24.8937 21.2491 24.1102 21.4373 23.2715C21.6119 23.4048 21.8018 23.482 21.9965 23.5162C22.4209 23.6258 22.6374 23.3144 22.5763 22.9657C22.1334 21.1703 21.7957 19.6952 21.6255 18.4631C23.53 21.001 25.404 21.2364 26.7524 20.246C27.8454 19.4455 28.1368 18.2079 28.1668 17.2366C29.1546 17.7609 30.352 17.6905 31.5178 16.7996C32.9157 15.7212 33.7191 13.7839 33.6472 12.1059L33.643 12.1324ZM28.6534 8.86283C28.9782 8.87866 29.2346 10.0142 29.2399 11.1168C29.2437 11.8762 29.0707 12.8554 28.6413 13.1818C28.5151 13.2802 28.3605 13.3342 28.1507 13.3561C27.7118 10.9613 28.2188 8.85604 28.6534 8.86283ZM16.5075 22.7085C16.7642 24.8997 16.7613 26.6281 16.1683 27.0781C15.9876 27.2177 15.7508 27.0554 15.51 26.723C15.0751 26.1434 14.6614 24.9486 14.5618 23.6925C14.3677 21.5136 14.7576 19.4372 15.1191 19.158C15.2998 19.0185 15.4289 19.1234 15.594 19.3429C15.9463 19.8127 16.2924 20.9484 16.5075 22.7085ZM21.5241 17.9363C21.39 16.6223 21.4021 15.5937 21.6666 14.6547C22.0219 13.3962 22.4872 12.7015 22.7987 12.8134C23.1365 12.9296 23.2603 13.7737 22.9888 14.9122C22.7574 15.8524 21.9155 17.3652 21.5272 17.9431L21.5241 17.9363Z" id="Vector_2"></path>
<path fill="white" d="M17.7878 31.7265C17.9866 31.4477 18.2129 31.1401 18.4237 30.995C18.5426 30.9163 18.503 30.8116 18.4188 30.7517C18.1475 30.5314 17.9115 30.6389 17.7119 30.8443C17.464 31.1045 16.9297 31.9698 16.6194 32.3075C16.571 32.3623 16.5657 32.422 16.6266 32.4843C16.81 32.6546 17.0536 32.6174 17.3113 32.3609C17.3664 32.303 17.4184 32.2384 17.4741 32.164C17.6373 33.1128 17.7798 34.0874 18.0333 35.0197C18.0574 35.0906 18.0981 35.1621 18.1259 35.2231C18.2048 35.3427 18.289 35.4024 18.4039 35.4403C18.5188 35.4781 18.5795 35.4505 18.5663 35.35C18.4372 34.5657 18.3081 33.7814 18.1723 33.0002C18.0726 32.4235 17.9431 31.9423 17.7847 31.7197L17.7878 31.7265Z" id="Vector_3"></path>
<path fill="white" d="M29.252 25.4678C29.3849 25.3664 29.3168 25.1273 29.1444 24.9275C28.9591 24.7172 28.5867 24.543 28.4341 24.637C28.3152 24.7157 28.3656 24.9873 28.5405 25.2106C28.7413 25.4548 29.0749 25.5975 29.2422 25.4641L29.252 25.4678Z" id="Vector_4"></path>
<path fill="white" d="M33.968 22.6825C33.8506 22.6214 33.7735 22.7383 33.8285 22.877C33.9794 23.3157 34.0468 23.9644 33.9222 24.2094C33.8654 24.3171 33.7542 24.2695 33.6335 24.1117C33.5411 23.9982 33.4603 23.8386 33.3904 23.6494C33.203 23.1126 33.0002 22.542 32.8743 22.2474C32.9569 22.1606 33.0665 22.0616 33.1548 22.0051C33.2736 21.9264 33.2551 21.8857 33.1324 21.8843C33.0526 21.8879 32.8992 21.9086 32.7367 21.9989C32.6604 21.9027 32.5725 21.8527 32.484 21.8193C32.425 21.7971 32.323 21.7699 32.2236 21.766C32.0713 21.7535 32.0008 21.7774 32.0342 21.8686C32.0892 22.0073 32.1545 22.133 32.2749 22.3974C32.1757 22.4835 32.0526 22.5887 31.9368 22.6741C31.8927 22.7024 31.8615 22.7412 31.8573 22.7677C31.6944 22.6781 31.3831 22.6561 31.2404 22.7538C31.1215 22.8325 31.1649 23.0174 31.3169 23.1365C31.4884 23.263 31.7868 23.2745 31.9411 23.1306C32.0336 23.0475 32.0241 22.9373 31.9539 22.8546C31.9704 22.8553 31.9803 22.859 31.9969 22.8596C32.0994 22.8702 32.2435 22.8292 32.4102 22.7124C32.5861 23.0988 32.7937 23.6263 32.9413 23.9684C32.9537 23.9956 32.966 24.0227 32.9783 24.0498C32.9809 24.0732 32.9834 24.0966 32.9957 24.1237C33.1837 24.6438 33.2833 25.417 33.1244 25.694C33.0786 25.7721 33.0232 25.74 32.9505 25.634C32.8711 25.531 32.797 25.3683 32.7241 25.1723C32.5967 24.821 32.4108 24.1445 32.2947 23.8536C32.1507 23.5017 31.8932 23.3652 31.6974 23.3643C31.5482 23.3585 31.5029 23.4201 31.5408 23.5747C31.7303 24.2414 31.9665 24.9033 32.2297 25.5529C32.4344 26.1635 32.535 26.8135 32.3944 27.0412C32.3314 27.1354 32.2042 27.0705 32.0778 26.8825C31.7211 26.3492 31.5636 25.5205 31.4963 24.8718C31.4744 24.7345 31.4251 24.626 31.3543 24.56C31.2195 24.4249 30.9897 24.3494 30.8375 24.3369C30.692 24.3213 30.6535 24.3798 30.6416 24.5325C30.619 24.8047 30.568 25.0325 30.4763 25.1889C30.3363 24.917 30.1976 24.7019 30.0825 24.5742C29.9416 24.4256 29.8169 24.3842 29.7078 24.4665C29.5442 24.5901 29.6505 25.3602 29.9726 25.7456C30.049 25.8418 30.1695 25.9097 30.3015 25.9315C30.4334 26.6326 30.5985 27.335 30.804 28.019C30.8251 28.0831 30.8461 28.1472 30.8672 28.2113C30.94 28.6037 30.9421 28.9302 30.8386 29.0427C30.7903 29.0975 30.7128 29.0346 30.6179 28.8977C30.523 28.7608 30.4138 28.5568 30.3125 28.3164C30.1445 27.8937 29.8851 27.0377 29.7274 26.6021C29.5358 26.0918 29.2281 25.7735 29.002 25.6882C28.8386 25.6153 28.7865 25.6799 28.8387 25.9017C29.0711 26.7699 29.3735 27.6308 29.7402 28.4542C29.7495 28.4746 29.7587 28.4949 29.768 28.5152C29.9413 29.0748 30.03 29.681 29.8093 30.0188C29.7943 29.6819 29.6525 29.1735 29.4159 28.6182C29.2004 28.127 28.9529 27.6013 28.6672 27.2239C28.3308 26.7713 27.813 26.385 27.5182 26.5602C27.3828 26.6382 27.3293 26.8426 27.3213 27.0754C27.2356 26.9589 27.1335 26.8417 27.0197 26.7707C26.9029 26.693 26.8133 26.6929 26.8741 26.9516C27.1839 28.0793 27.5196 29.2278 27.9398 30.3297C27.8351 30.1892 27.6894 30.0836 27.5352 30.0311C27.2102 29.9253 26.3126 29.8674 25.9528 29.3273C25.5486 28.7256 25.1908 27.3496 25.7283 26.7776C25.8432 26.8153 25.9817 27.2269 26.0759 27.5769C26.1942 27.9978 26.3516 28.3436 26.4718 28.5181C26.6018 28.6962 26.7408 28.8048 26.8809 28.8802C27.0764 28.9876 27.0731 28.8909 27.0217 28.7424C26.9432 28.5162 26.7707 28.03 26.6852 27.717C26.6227 27.5081 26.4995 27.1303 26.2306 26.8436C26.0545 26.6536 25.7925 26.4537 25.5313 26.3271C25.3807 26.2646 25.2647 26.2602 25.163 26.3228C25.068 26.3825 24.9958 26.4563 24.9361 26.6471C24.671 27.6027 24.9639 28.8362 25.5411 29.6211C26.0517 30.3136 26.8433 30.4606 27.6185 30.697C27.7168 30.7341 27.8319 30.8618 27.8532 31.0158C27.8658 31.1328 27.8028 31.227 27.7109 31.2934C27.4628 31.4637 26.9117 31.2726 26.5682 31.1261C26.4797 31.0927 26.3974 31.0729 26.3207 31.0833C26.2079 30.8891 26.0582 30.7035 25.9734 30.6602C25.8658 30.6028 25.8211 30.6477 25.875 30.8196C25.9134 30.9577 25.9549 31.1025 25.9964 31.2473C25.9964 31.2473 25.9829 31.2534 25.9793 31.2633C25.9506 31.3254 25.9643 31.4092 26.0547 31.4826C26.1677 31.9632 26.2234 32.3717 26.1149 32.4375C26.0334 32.4909 25.8815 32.3718 25.7361 32.1597C25.5149 31.8348 25.3595 31.3326 25.2244 30.8212C25.0174 30.0805 24.8129 29.5598 24.5917 29.2348C24.3736 28.9167 24.1153 28.7069 23.9694 28.7979C23.807 28.8882 23.7665 29.3895 23.8047 29.9205C23.5299 29.5136 23.1941 29.2409 23.0446 29.3417C22.8883 29.4456 22.8664 29.9876 22.9347 30.5131C22.8884 30.4114 22.8316 30.3226 22.7811 30.2474C22.6801 30.097 22.549 29.952 22.4167 29.8404C22.2586 29.7077 22.1844 29.7415 22.2433 29.9603C22.5189 30.9234 22.8044 31.8902 23.1506 32.8294C23.2975 33.3845 23.3337 33.8755 23.1559 33.9319C23.0988 33.9497 23.0115 33.8831 22.9394 33.7604C22.5338 33.102 22.4444 32.226 22.211 31.481C22.0439 30.935 21.7182 30.5594 21.5165 30.4385C21.3733 30.3563 21.298 30.4234 21.3538 30.6353C21.3891 30.7666 21.4034 30.8337 21.4418 30.9718C21.2461 30.7744 20.9801 30.6909 20.8497 30.8157C20.4345 31.2094 20.4891 32.134 20.5865 32.7771C20.6092 32.9878 20.652 33.1893 20.712 33.3748C20.7047 33.3945 20.7103 33.4247 20.7092 33.4579C20.7769 34.0001 20.6901 34.5962 20.2343 34.7218C20.0533 34.7715 19.8228 34.6227 19.6392 34.3625C19.5665 34.2565 19.498 34.1239 19.4461 33.992C19.6341 34.0293 19.8004 34.019 19.9383 33.9644C20.443 33.7674 20.3246 32.8636 20.0276 32.4259C19.9611 32.3334 19.8682 32.2366 19.7901 32.1903C19.6143 32.0902 19.4399 32.0469 19.2213 32.0318C19.1452 32.0255 19.0747 32.0495 19.0097 32.1035C18.7205 32.3089 18.5823 32.953 18.7358 33.7016C18.7857 33.9899 18.8839 34.2235 19.0231 34.422C19.3299 34.8635 19.8461 35.1032 20.4154 34.9586C20.8104 34.8606 21.0766 34.5512 21.1401 34.154C21.4115 34.4641 21.7478 34.6303 22.0722 34.5562C22.3232 34.4993 22.4531 34.1946 22.4726 33.9156C22.7219 34.1949 23.0385 34.3537 23.3403 34.2654C23.5347 34.2096 23.6472 34.0275 23.6852 33.7891C23.772 33.8724 23.8593 33.9391 23.9509 33.9792C24.1303 34.0694 24.1627 33.9974 24.1114 33.8489C23.8084 33.0046 23.506 32.1437 23.357 31.2621C23.2218 30.4642 23.27 30.1231 23.3074 30.0979C23.3515 30.0696 23.4687 30.5237 23.6204 31.0358C23.7634 31.5109 23.9381 32.1271 24.0913 32.4993C24.1988 32.7532 24.3506 33.0688 24.4547 33.226C24.6094 33.4585 24.7318 33.5664 24.8978 33.6627C25.0736 33.7627 25.1256 33.6981 25.0625 33.5059C24.7082 32.5131 24.3772 31.5179 24.223 30.4995C24.1155 29.7627 24.1684 29.5749 24.2058 29.5497C24.2463 29.5313 24.3233 29.8972 24.433 30.2811C24.5513 30.702 24.742 31.3354 24.8786 31.7071C24.9788 31.9807 25.1039 32.202 25.2179 32.3629C25.5623 32.8691 25.973 33.0914 26.329 32.872C26.5833 32.7153 26.676 32.2393 26.5839 31.7328C27.0515 31.9374 27.5147 32.0785 27.9444 31.8419C28.1914 31.7049 28.3028 31.3595 28.2535 31.0545C28.2479 31.0244 28.2423 30.9942 28.2398 30.9707C28.2892 31.0792 28.3417 31.1945 28.3843 31.306C28.5139 31.5908 28.6268 31.785 28.7217 31.9218C28.8449 32.1031 28.9575 32.2073 29.1431 32.3111C29.2605 32.3722 29.2996 32.2971 29.2329 32.1147C28.9944 31.5194 28.9197 30.8904 28.7045 30.2926C29.1653 30.6967 29.5786 30.746 29.9498 30.4705C30.2396 30.2486 30.4272 29.9094 30.392 29.3852C30.627 29.5974 30.8543 29.6495 31.0575 29.4342C31.1677 29.3185 31.244 29.1283 31.282 28.89C31.3848 28.9906 31.4949 29.0714 31.6036 29.0956C31.7811 29.1457 31.7961 28.9997 31.7189 28.8302C31.2781 27.8441 31.0365 26.7591 30.73 25.7282C30.8371 25.6057 30.9355 25.4463 31.0025 25.2358C31.0957 25.9055 31.2899 26.7256 31.6725 27.2798C31.9572 27.6905 32.3442 27.8253 32.5978 27.3988C32.7562 27.1385 32.8269 26.7215 32.8007 26.3242C32.9833 26.4212 33.1549 26.3512 33.3181 26.0478C33.4952 25.7216 33.5767 25.1852 33.5295 24.7238C33.7544 24.8423 33.9733 24.7509 34.0917 24.4923C34.353 23.9396 34.254 23.1498 34.194 22.9643C34.1525 22.8195 34.1118 22.748 34.0239 22.698L33.968 22.6825ZM19.3793 32.3609C19.4812 32.3882 19.5971 32.7856 19.6121 33.1226C19.6305 33.3597 19.5815 33.6276 19.4466 33.689C19.4061 33.7074 19.3595 33.7123 19.2968 33.6999C19.152 32.9883 19.238 32.3188 19.3695 32.3572L19.3793 32.3609ZM21.8608 32.7863C22.052 33.5996 22.0699 34.1398 21.8688 34.1987C21.805 34.2195 21.725 34.1332 21.6332 34.0031C21.4687 33.767 21.3043 33.3343 21.2264 32.8951C21.0869 32.1237 21.0899 31.3612 21.1916 31.2985C21.2456 31.2739 21.2905 31.3189 21.3632 31.425C21.5148 31.6506 21.7039 32.1375 21.8572 32.7962L21.8608 32.7863ZM29.062 30.1299C28.9327 30.2215 28.4296 29.5993 28.1547 28.906C28.0699 28.6662 28.031 28.5449 27.9463 28.3051C27.6587 27.4948 27.6155 26.9169 27.761 26.9325C27.7942 26.9338 27.8902 27.0374 28.014 27.2021C28.2394 27.5005 28.5243 28.001 28.7263 28.4984C29.0876 29.3816 29.2182 30.026 29.0718 30.1336L29.062 30.1299Z" id="Vector_5"></path>
<path fill="white" d="M19.9685 39.2485C30.6447 39.2485 39.2994 30.5937 39.2994 19.9175C39.2994 9.24125 30.6447 0.586438 19.9685 0.586438C9.29228 0.586438 0.637464 9.24125 0.637464 19.9175C0.637464 30.5937 9.29228 39.2485 19.9685 39.2485ZM19.9685 39.9175C31.0142 39.9175 39.9685 30.9632 39.9685 19.9175C39.9685 8.8718 31.0142 -0.0825195 19.9685 -0.0825195C8.92279 -0.0825195 -0.0314941 8.8718 -0.0314941 19.9175C-0.0314941 30.9632 8.92279 39.9175 19.9685 39.9175Z" clip-rule="evenodd" fill-rule="evenodd" id="Vector_6"></path>
</g>
</g>
</g>
</g>
<defs>
<clipPath id="clip0_1218_5026">
<rect fill="white" height="40" width="40"></rect>
</clipPath>
</defs>
</svg>
